<mxfile host="app.diagrams.net" modified="2024-06-20T08:23:06.687Z" agent="Mozilla/5.0 (Windows NT 10.0; Win64; x64) AppleWebKit/537.36 (KHTML, like Gecko) Chrome/126.0.0.0 Safari/537.36 Edg/126.0.0.0" etag="P0aE53WyUz-kt-aORrzS" version="24.5.5" type="github">
  <diagram name="第 1 页" id="VAEvbOEpjss1O71dqnCe">
    <mxGraphModel dx="871" dy="1428" grid="1" gridSize="10" guides="1" tooltips="1" connect="1" arrows="1" fold="1" page="1" pageScale="1" pageWidth="827" pageHeight="1169" math="0" shadow="0">
      <root>
        <mxCell id="0" />
        <mxCell id="1" parent="0" />
        <mxCell id="nkDRGLkflmFNne_LrV7g-3" value="his=12 pred=12" style="shape=note;whiteSpace=wrap;html=1;backgroundOutline=1;fontColor=#000000;darkOpacity=0.05;fillColor=#FFF9B2;strokeColor=none;fillStyle=solid;direction=west;gradientDirection=north;gradientColor=#FFF2A1;shadow=1;size=20;pointerEvents=1;" vertex="1" parent="1">
          <mxGeometry x="290" y="50" width="90" height="40" as="geometry" />
        </mxCell>
        <mxCell id="nkDRGLkflmFNne_LrV7g-35" value="trainX（10172， 12， 307， 1）" style="text;strokeColor=none;align=center;fillColor=none;html=1;verticalAlign=middle;whiteSpace=wrap;rounded=0;" vertex="1" parent="1">
          <mxGeometry x="1194" y="90" width="210" height="30" as="geometry" />
        </mxCell>
        <mxCell id="nkDRGLkflmFNne_LrV7g-36" value="trainY（10172， 12， 307， 1）" style="text;strokeColor=none;align=center;fillColor=none;html=1;verticalAlign=middle;whiteSpace=wrap;rounded=0;" vertex="1" parent="1">
          <mxGeometry x="1194" y="130" width="210" height="30" as="geometry" />
        </mxCell>
        <mxCell id="nkDRGLkflmFNne_LrV7g-37" value="trainTE（10172， 24， 2），（dow，tod）" style="text;strokeColor=none;align=center;fillColor=none;html=1;verticalAlign=middle;whiteSpace=wrap;rounded=0;" vertex="1" parent="1">
          <mxGeometry x="1194" y="180" width="280" height="30" as="geometry" />
        </mxCell>
        <mxCell id="nkDRGLkflmFNne_LrV7g-38" value="数据处理data（16992，307，2）2：（流量，日期）" style="text;strokeColor=none;align=center;fillColor=none;html=1;verticalAlign=middle;whiteSpace=wrap;rounded=0;" vertex="1" parent="1">
          <mxGeometry x="100" y="160" width="305" height="30" as="geometry" />
        </mxCell>
        <mxCell id="nkDRGLkflmFNne_LrV7g-39" value="train_set（10195，307，2）" style="text;strokeColor=none;align=center;fillColor=none;html=1;verticalAlign=middle;whiteSpace=wrap;rounded=0;" vertex="1" parent="1">
          <mxGeometry x="150" y="220" width="160" height="30" as="geometry" />
        </mxCell>
        <mxCell id="nkDRGLkflmFNne_LrV7g-40" value="" style="endArrow=classic;html=1;rounded=0;" edge="1" parent="1">
          <mxGeometry width="50" height="50" relative="1" as="geometry">
            <mxPoint x="220" y="250" as="sourcePoint" />
            <mxPoint x="220" y="360" as="targetPoint" />
          </mxGeometry>
        </mxCell>
        <mxCell id="nkDRGLkflmFNne_LrV7g-41" value="seq2instance_plus（train_set[...:1]）" style="text;strokeColor=none;align=center;fillColor=none;html=1;verticalAlign=middle;whiteSpace=wrap;rounded=0;" vertex="1" parent="1">
          <mxGeometry x="220" y="290" width="240" height="30" as="geometry" />
        </mxCell>
        <mxCell id="nkDRGLkflmFNne_LrV7g-42" value="X（10172，12，307，1）&lt;div&gt;Y（10172，12，307，1）&lt;/div&gt;" style="text;strokeColor=none;align=center;fillColor=none;html=1;verticalAlign=middle;whiteSpace=wrap;rounded=0;" vertex="1" parent="1">
          <mxGeometry x="130" y="370" width="200" height="30" as="geometry" />
        </mxCell>
        <mxCell id="nkDRGLkflmFNne_LrV7g-43" value="time（10195，2）2：（dow，tod）" style="text;strokeColor=none;align=center;fillColor=none;html=1;verticalAlign=middle;whiteSpace=wrap;rounded=0;" vertex="1" parent="1">
          <mxGeometry x="482" y="225" width="198" height="30" as="geometry" />
        </mxCell>
        <mxCell id="nkDRGLkflmFNne_LrV7g-44" value="" style="endArrow=classic;html=1;rounded=0;" edge="1" parent="1">
          <mxGeometry width="50" height="50" relative="1" as="geometry">
            <mxPoint x="552" y="255" as="sourcePoint" />
            <mxPoint x="552" y="365" as="targetPoint" />
          </mxGeometry>
        </mxCell>
        <mxCell id="nkDRGLkflmFNne_LrV7g-45" value="seq2instance（time，num_his，num_pred）" style="text;strokeColor=none;align=center;fillColor=none;html=1;verticalAlign=middle;whiteSpace=wrap;rounded=0;" vertex="1" parent="1">
          <mxGeometry x="552" y="295" width="258" height="30" as="geometry" />
        </mxCell>
        <mxCell id="nkDRGLkflmFNne_LrV7g-46" value="X（10172，12，2）&lt;span style=&quot;background-color: initial;&quot;&gt;Y（10172，12，2）&lt;/span&gt;" style="text;strokeColor=none;align=center;fillColor=none;html=1;verticalAlign=middle;whiteSpace=wrap;rounded=0;" vertex="1" parent="1">
          <mxGeometry x="437" y="370" width="283" height="30" as="geometry" />
        </mxCell>
        <mxCell id="nkDRGLkflmFNne_LrV7g-47" value="在-2维度拼接得TE（10172,24,2&lt;span style=&quot;background-color: initial;&quot;&gt;）&lt;/span&gt;" style="text;strokeColor=none;align=center;fillColor=none;html=1;verticalAlign=middle;whiteSpace=wrap;rounded=0;" vertex="1" parent="1">
          <mxGeometry x="480" y="410" width="200" height="30" as="geometry" />
        </mxCell>
        <mxCell id="nkDRGLkflmFNne_LrV7g-48" value="X是x_trains&lt;div&gt;Y是y_trainbs&lt;/div&gt;" style="text;strokeColor=none;align=center;fillColor=none;html=1;verticalAlign=middle;whiteSpace=wrap;rounded=0;" vertex="1" parent="1">
          <mxGeometry x="170" y="410" width="110" height="30" as="geometry" />
        </mxCell>
        <mxCell id="nkDRGLkflmFNne_LrV7g-49" value="X（4，12，307，1）" style="text;strokeColor=none;align=center;fillColor=none;html=1;verticalAlign=middle;whiteSpace=wrap;rounded=0;" vertex="1" parent="1">
          <mxGeometry x="1108" y="250" width="120" height="30" as="geometry" />
        </mxCell>
        <mxCell id="nkDRGLkflmFNne_LrV7g-50" value="batch_size=4" style="shape=note;whiteSpace=wrap;html=1;backgroundOutline=1;fontColor=#000000;darkOpacity=0.05;fillColor=#FFF9B2;strokeColor=none;fillStyle=solid;direction=west;gradientDirection=north;gradientColor=#FFF2A1;shadow=1;size=20;pointerEvents=1;" vertex="1" parent="1">
          <mxGeometry x="1248" y="20" width="81" height="50" as="geometry" />
        </mxCell>
        <mxCell id="nkDRGLkflmFNne_LrV7g-52" value="TE（4，24,2）" style="text;strokeColor=none;align=center;fillColor=none;html=1;verticalAlign=middle;whiteSpace=wrap;rounded=0;" vertex="1" parent="1">
          <mxGeometry x="1228" y="250" width="120" height="30" as="geometry" />
        </mxCell>
        <mxCell id="nkDRGLkflmFNne_LrV7g-53" value="label（4，12，307，1）" style="text;strokeColor=none;align=center;fillColor=none;html=1;verticalAlign=middle;whiteSpace=wrap;rounded=0;" vertex="1" parent="1">
          <mxGeometry x="1338" y="250" width="149" height="30" as="geometry" />
        </mxCell>
        <mxCell id="nkDRGLkflmFNne_LrV7g-55" value="" style="endArrow=classic;html=1;rounded=0;" edge="1" parent="1">
          <mxGeometry width="50" height="50" relative="1" as="geometry">
            <mxPoint x="1273.76" y="325" as="sourcePoint" />
            <mxPoint x="1273.76" y="400" as="targetPoint" />
            <Array as="points">
              <mxPoint x="1273.76" y="355" />
            </Array>
          </mxGeometry>
        </mxCell>
        <mxCell id="nkDRGLkflmFNne_LrV7g-56" value="model（X，TE）" style="text;strokeColor=none;align=center;fillColor=none;html=1;verticalAlign=middle;whiteSpace=wrap;rounded=0;" vertex="1" parent="1">
          <mxGeometry x="1219" y="295" width="110" height="30" as="geometry" />
        </mxCell>
        <mxCell id="nkDRGLkflmFNne_LrV7g-57" value="FC_1（in_channels=1, D=128）" style="text;strokeColor=none;align=center;fillColor=none;html=1;verticalAlign=middle;whiteSpace=wrap;rounded=0;" vertex="1" parent="1">
          <mxGeometry x="1288" y="340" width="200" height="30" as="geometry" />
        </mxCell>
        <mxCell id="nkDRGLkflmFNne_LrV7g-58" value="X（4，12，307，128）" style="text;strokeColor=none;align=center;fillColor=none;html=1;verticalAlign=middle;whiteSpace=wrap;rounded=0;" vertex="1" parent="1">
          <mxGeometry x="1219" y="400" width="139" height="30" as="geometry" />
        </mxCell>
        <mxCell id="nkDRGLkflmFNne_LrV7g-59" value="self.STEmbedding(self.SE&amp;lt;shape=(307,128)&amp;gt;，TE，288)" style="text;strokeColor=none;align=center;fillColor=none;html=1;verticalAlign=middle;whiteSpace=wrap;rounded=0;" vertex="1" parent="1">
          <mxGeometry x="783" y="290" width="340" height="30" as="geometry" />
        </mxCell>
        <mxCell id="nkDRGLkflmFNne_LrV7g-60" value="" style="endArrow=classic;html=1;rounded=0;" edge="1" parent="1">
          <mxGeometry width="50" height="50" relative="1" as="geometry">
            <mxPoint x="943" y="320" as="sourcePoint" />
            <mxPoint x="943" y="360" as="targetPoint" />
            <Array as="points">
              <mxPoint x="943" y="350" />
            </Array>
          </mxGeometry>
        </mxCell>
        <mxCell id="nkDRGLkflmFNne_LrV7g-61" value="STE(4，24,307,128)" style="text;strokeColor=none;align=center;fillColor=none;html=1;verticalAlign=middle;whiteSpace=wrap;rounded=0;" vertex="1" parent="1">
          <mxGeometry x="883" y="360" width="120" height="30" as="geometry" />
        </mxCell>
        <mxCell id="nkDRGLkflmFNne_LrV7g-64" value="STE_his(4，12,307,128)" style="text;strokeColor=none;align=center;fillColor=none;html=1;verticalAlign=middle;whiteSpace=wrap;rounded=0;" vertex="1" parent="1">
          <mxGeometry x="873" y="390" width="160" height="30" as="geometry" />
        </mxCell>
        <mxCell id="nkDRGLkflmFNne_LrV7g-65" value="STE_pred(4，12,307,128)" style="text;strokeColor=none;align=center;fillColor=none;html=1;verticalAlign=middle;whiteSpace=wrap;rounded=0;" vertex="1" parent="1">
          <mxGeometry x="873" y="420" width="160" height="30" as="geometry" />
        </mxCell>
        <mxCell id="nkDRGLkflmFNne_LrV7g-67" value="batch_mask_matrix(4，12,307,128)" style="text;strokeColor=none;align=center;fillColor=none;html=1;verticalAlign=middle;whiteSpace=wrap;rounded=0;" vertex="1" parent="1">
          <mxGeometry x="1710" y="325" width="220" height="30" as="geometry" />
        </mxCell>
        <mxCell id="nkDRGLkflmFNne_LrV7g-68" value="" style="endArrow=classic;html=1;rounded=0;" edge="1" parent="1">
          <mxGeometry width="50" height="50" relative="1" as="geometry">
            <mxPoint x="1370" y="414.5" as="sourcePoint" />
            <mxPoint x="1720" y="415" as="targetPoint" />
          </mxGeometry>
        </mxCell>
        <mxCell id="nkDRGLkflmFNne_LrV7g-69" value="X_miss（4，12，307，128）" style="text;strokeColor=none;align=center;fillColor=none;html=1;verticalAlign=middle;whiteSpace=wrap;rounded=0;" vertex="1" parent="1">
          <mxGeometry x="1730" y="400" width="190" height="30" as="geometry" />
        </mxCell>
        <mxCell id="nkDRGLkflmFNne_LrV7g-70" value="" style="endArrow=classic;html=1;rounded=0;" edge="1" parent="1">
          <mxGeometry width="50" height="50" relative="1" as="geometry">
            <mxPoint x="1273.5" y="430" as="sourcePoint" />
            <mxPoint x="1273.5" y="505" as="targetPoint" />
          </mxGeometry>
        </mxCell>
        <mxCell id="nkDRGLkflmFNne_LrV7g-71" value="encoder(X，STE_his)" style="text;strokeColor=none;align=center;fillColor=none;html=1;verticalAlign=middle;whiteSpace=wrap;rounded=0;" vertex="1" parent="1">
          <mxGeometry x="1298" y="450" width="132" height="30" as="geometry" />
        </mxCell>
        <mxCell id="nkDRGLkflmFNne_LrV7g-72" value="X（4，12，307，128）" style="text;strokeColor=none;align=center;fillColor=none;html=1;verticalAlign=middle;whiteSpace=wrap;rounded=0;" vertex="1" parent="1">
          <mxGeometry x="1219" y="510" width="139" height="30" as="geometry" />
        </mxCell>
        <mxCell id="nkDRGLkflmFNne_LrV7g-74" value="" style="endArrow=classic;html=1;rounded=0;" edge="1" parent="1">
          <mxGeometry width="50" height="50" relative="1" as="geometry">
            <mxPoint x="1370" y="524.5" as="sourcePoint" />
            <mxPoint x="1430" y="524.5" as="targetPoint" />
          </mxGeometry>
        </mxCell>
        <mxCell id="nkDRGLkflmFNne_LrV7g-75" value="complete_X_enc（4，12，307，128）" style="text;strokeColor=none;align=center;fillColor=none;html=1;verticalAlign=middle;whiteSpace=wrap;rounded=0;" vertex="1" parent="1">
          <mxGeometry x="1430" y="510" width="240" height="30" as="geometry" />
        </mxCell>
        <mxCell id="nkDRGLkflmFNne_LrV7g-76" value="" style="endArrow=classic;html=1;rounded=0;" edge="1" parent="1">
          <mxGeometry width="50" height="50" relative="1" as="geometry">
            <mxPoint x="1273.5" y="540" as="sourcePoint" />
            <mxPoint x="1273.5" y="615" as="targetPoint" />
          </mxGeometry>
        </mxCell>
        <mxCell id="nkDRGLkflmFNne_LrV7g-77" value="transAtt（X，STE_his，STE_pred）" style="text;strokeColor=none;align=center;fillColor=none;html=1;verticalAlign=middle;whiteSpace=wrap;rounded=0;" vertex="1" parent="1">
          <mxGeometry x="1288" y="555" width="236" height="30" as="geometry" />
        </mxCell>
        <mxCell id="nkDRGLkflmFNne_LrV7g-79" value="X（4，12，307，128）" style="text;strokeColor=none;align=center;fillColor=none;html=1;verticalAlign=middle;whiteSpace=wrap;rounded=0;" vertex="1" parent="1">
          <mxGeometry x="1218.5" y="620" width="139" height="30" as="geometry" />
        </mxCell>
        <mxCell id="nkDRGLkflmFNne_LrV7g-82" value="" style="endArrow=classic;html=1;rounded=0;" edge="1" parent="1">
          <mxGeometry width="50" height="50" relative="1" as="geometry">
            <mxPoint x="1274.5" y="658" as="sourcePoint" />
            <mxPoint x="1274.5" y="733" as="targetPoint" />
          </mxGeometry>
        </mxCell>
        <mxCell id="nkDRGLkflmFNne_LrV7g-83" value="dncoder(X，STE_pred)" style="text;strokeColor=none;align=center;fillColor=none;html=1;verticalAlign=middle;whiteSpace=wrap;rounded=0;" vertex="1" parent="1">
          <mxGeometry x="1299" y="678" width="132" height="30" as="geometry" />
        </mxCell>
        <mxCell id="nkDRGLkflmFNne_LrV7g-84" value="X（4，12，307，128）" style="text;strokeColor=none;align=center;fillColor=none;html=1;verticalAlign=middle;whiteSpace=wrap;rounded=0;" vertex="1" parent="1">
          <mxGeometry x="1218.5" y="740" width="139" height="30" as="geometry" />
        </mxCell>
        <mxCell id="nkDRGLkflmFNne_LrV7g-85" value="" style="endArrow=classic;html=1;rounded=0;" edge="1" parent="1">
          <mxGeometry width="50" height="50" relative="1" as="geometry">
            <mxPoint x="1816.5" y="432" as="sourcePoint" />
            <mxPoint x="1816.5" y="507" as="targetPoint" />
          </mxGeometry>
        </mxCell>
        <mxCell id="nkDRGLkflmFNne_LrV7g-86" value="encoder(X_miss，STE_his，batch_mask_matrix)" style="text;strokeColor=none;align=center;fillColor=none;html=1;verticalAlign=middle;whiteSpace=wrap;rounded=0;" vertex="1" parent="1">
          <mxGeometry x="1841" y="452" width="269" height="30" as="geometry" />
        </mxCell>
        <mxCell id="nkDRGLkflmFNne_LrV7g-87" value="X_miss（4，12，307，128）" style="text;strokeColor=none;align=center;fillColor=none;html=1;verticalAlign=middle;whiteSpace=wrap;rounded=0;" vertex="1" parent="1">
          <mxGeometry x="1725" y="510" width="190" height="30" as="geometry" />
        </mxCell>
        <mxCell id="nkDRGLkflmFNne_LrV7g-88" value="" style="endArrow=classic;html=1;rounded=0;" edge="1" parent="1">
          <mxGeometry width="50" height="50" relative="1" as="geometry">
            <mxPoint x="1816.5" y="544" as="sourcePoint" />
            <mxPoint x="1816.5" y="619" as="targetPoint" />
          </mxGeometry>
        </mxCell>
        <mxCell id="nkDRGLkflmFNne_LrV7g-89" value="self_decoder(X_miss，STE_his，batch_mask_matrix)" style="text;strokeColor=none;align=center;fillColor=none;html=1;verticalAlign=middle;whiteSpace=wrap;rounded=0;" vertex="1" parent="1">
          <mxGeometry x="1841" y="564" width="309" height="30" as="geometry" />
        </mxCell>
        <mxCell id="nkDRGLkflmFNne_LrV7g-90" value="X_miss（4，12，307，128）" style="text;strokeColor=none;align=center;fillColor=none;html=1;verticalAlign=middle;whiteSpace=wrap;rounded=0;" vertex="1" parent="1">
          <mxGeometry x="1725" y="620" width="190" height="30" as="geometry" />
        </mxCell>
        <mxCell id="nkDRGLkflmFNne_LrV7g-91" value="" style="endArrow=classic;html=1;rounded=0;" edge="1" parent="1">
          <mxGeometry width="50" height="50" relative="1" as="geometry">
            <mxPoint x="1549.5" y="540" as="sourcePoint" />
            <mxPoint x="1550" y="850" as="targetPoint" />
          </mxGeometry>
        </mxCell>
        <mxCell id="nkDRGLkflmFNne_LrV7g-93" value="" style="endArrow=none;html=1;rounded=0;" edge="1" parent="1">
          <mxGeometry width="50" height="50" relative="1" as="geometry">
            <mxPoint x="1550" y="640" as="sourcePoint" />
            <mxPoint x="1710" y="640" as="targetPoint" />
          </mxGeometry>
        </mxCell>
        <mxCell id="nkDRGLkflmFNne_LrV7g-94" value="loss_self" style="text;strokeColor=none;align=center;fillColor=none;html=1;verticalAlign=middle;whiteSpace=wrap;rounded=0;" vertex="1" parent="1">
          <mxGeometry x="1510" y="860" width="60" height="30" as="geometry" />
        </mxCell>
        <mxCell id="nkDRGLkflmFNne_LrV7g-97" value="" style="endArrow=classic;html=1;rounded=0;" edge="1" parent="1">
          <mxGeometry relative="1" as="geometry">
            <mxPoint x="1273.5" y="770" as="sourcePoint" />
            <mxPoint x="1273.5" y="860" as="targetPoint" />
          </mxGeometry>
        </mxCell>
        <mxCell id="nkDRGLkflmFNne_LrV7g-98" value="Label" style="edgeLabel;resizable=0;html=1;;align=center;verticalAlign=middle;" connectable="0" vertex="1" parent="nkDRGLkflmFNne_LrV7g-97">
          <mxGeometry relative="1" as="geometry" />
        </mxCell>
        <mxCell id="nkDRGLkflmFNne_LrV7g-99" value="loss_batch" style="text;strokeColor=none;align=center;fillColor=none;html=1;verticalAlign=middle;whiteSpace=wrap;rounded=0;" vertex="1" parent="1">
          <mxGeometry x="1244" y="860" width="60" height="30" as="geometry" />
        </mxCell>
        <mxCell id="nkDRGLkflmFNne_LrV7g-100" value="" style="shape=partialRectangle;whiteSpace=wrap;html=1;bottom=1;right=1;left=1;top=0;fillColor=none;routingCenterX=-0.5;" vertex="1" parent="1">
          <mxGeometry x="1274" y="890" width="266" height="30" as="geometry" />
        </mxCell>
        <mxCell id="nkDRGLkflmFNne_LrV7g-101" value="" style="endArrow=classic;html=1;rounded=0;" edge="1" parent="1">
          <mxGeometry width="50" height="50" relative="1" as="geometry">
            <mxPoint x="1406.76" y="920" as="sourcePoint" />
            <mxPoint x="1406.76" y="960" as="targetPoint" />
          </mxGeometry>
        </mxCell>
        <mxCell id="nkDRGLkflmFNne_LrV7g-102" value="loss_all" style="text;strokeColor=none;align=center;fillColor=none;html=1;verticalAlign=middle;whiteSpace=wrap;rounded=0;" vertex="1" parent="1">
          <mxGeometry x="1377" y="960" width="60" height="30" as="geometry" />
        </mxCell>
      </root>
    </mxGraphModel>
  </diagram>
</mxfile>
